#!OML:ASF F:\VICON\USERDATA\INSTALL\rory3\rory3.ASF
:FULLY-SPECIFIED
:DEGREES
129
root 0.933153 18.1348 -0.513737 -2.67265 -1.18475 1.18397
lowerback 11.2803 -0.18551 -2.11629
upperback 1.69008 -0.421319 1.64906
thorax -4.52954 -0.163373 2.98189
lowerneck -16.5476 -2.93986 -0.987138
upperneck 17.2664 -3.73002 -0.287419
head 8.09019 -1.86332 -0.370327
rclavicle 1.51573e-014 -4.37326e-015
rhumerus -33.9027 -14.8143 -78.5739
rradius 28.1979
rwrist 4.34451
rhand -14.7797 23.3843
rfingers 7.12502
rthumb 11.3772 -6.28711
lclavicle 1.51573e-014 -4.37326e-015
lhumerus -25.0608 -5.61808 79.0812
lradius 31.7325
lwrist 0.0771478
lhand -25.1514 27.1838
lfingers 7.12502
lthumb 1.36532 57.1592
rfemur -31.6738 -0.870322 20.7888
rtibia 45.63
rfoot -7.69953 -11.9186
rtoes -7.93409
lfemur -3.03721 -4.54555 -25.845
ltibia 30.5055
lfoot -17.0365 11.2287
ltoes -24.0664
130
root 0.927195 18.1462 -0.359218 -2.49716 -1.21429 1.16637
lowerback 11.2535 -0.211909 -2.16706
upperback 1.65314 -0.458612 1.71805
thorax -4.54986 -0.179738 3.08869
lowerneck -16.7624 -2.8815 -1.02063
upperneck 17.4217 -3.65103 -0.232585
head 8.18177 -1.82137 -0.34257
rclavicle -2.98177e-015 -1.51076e-014
rhumerus -33.9892 -14.9435 -78.5166
rradius 27.9205
rwrist 4.53376
rhand -14.9332 22.8917
rfingers 7.12502
rthumb 11.2291 -6.78776
lclavicle -2.98177e-015 -1.51076e-014
lhumerus -24.6927 -5.48385 78.8337
lradius 32.1057
lwrist 0.0776487
lhand -24.6973 26.986
lfingers 7.12502
lthumb 1.80396 56.9581
rfemur -31.5239 -0.331157 20.7102
rtibia 42.488
rfoot -7.04699 -13.0223
rtoes -7.47176
lfemur -2.07043 -4.45989 -25.8257
ltibia 29.9938
lfoot -19.8835 8.6001
ltoes -1.47693
131
root 0.919765 18.1366 -0.208726 -2.2168 -1.20607 1.21164
lowerback 11.1962 -0.210832 -2.24519
upperback 1.48185 -0.464279 1.73979
thorax -4.69646 -0.176447 3.15779
lowerneck -16.4127 -2.9272 -0.948027
upperneck 17.2236 -3.73567 -0.230908
head 8.05246 -1.85823 -0.355889
rclavicle -8.44835e-016 7.95139e-015
rhumerus -34.3356 -15.3404 -78.3106
rradius 27.6959
rwrist 5.05933
rhand -14.9901 22.3693
rfingers 7.12502
rthumb 11.1743 -7.31314
lclavicle -8.44835e-016 7.95139e-015
lhumerus -24.4413 -5.91137 78.687
lradius 32.42
lwrist 0.313785
lhand -23.4538 29.0209
lfingers 7.12502
lthumb 3.00482 58.9795
rfemur -31.4793 0.288146 20.5093
rtibia 39.2586
rfoot -6.60231 -14.3081
rtoes -7.02196
lfemur -1.50832 -4.43346 -25.8679
ltibia 29.3834
lfoot -19.8748 8.41402
ltoes -1.63163
132
root 0.911204 18.1304 -0.0468723 -2.09585 -1.14887 1.27779
lowerback 11.1615 -0.242015 -2.34965
upperback 1.42234 -0.517205 1.74892
thorax -4.73476 -0.199209 3.23471
lowerneck -16.3686 -2.97538 -0.891116
upperneck 17.2595 -3.81366 -0.248167
head 8.05532 -1.89327 -0.379638
rclavicle 6.95746e-015 -7.15625e-015
rhumerus -34.4757 -15.742 -78.1052
rradius 27.1378
rwrist 5.3643
rhand -14.8028 22.2484
rfingers 7.12502
rthumb 11.3549 -7.42422
lclavicle 6.95746e-015 -7.15625e-015
lhumerus -24.1956 -6.29045 78.5466
lradius 32.6666
lwrist 0.821339
lhand -23.6549 28.5958
lfingers 7.12502
lthumb 2.81064 58.557
rfemur -31.0829 0.877854 20.254
rtibia 35.9162
rfoot -6.49593 -15.5901
rtoes -5.66871
lfemur -0.77927 -4.33963 -25.9391
ltibia 28.8268
lfoot -20.0313 8.50754
ltoes -4.3636
133
root 0.905633 18.1392 0.125503 -2.10859 -1.08066 1.3581
lowerback 11.0248 -0.321611 -2.49961
upperback 1.54546 -0.636298 1.79588
thorax -4.51877 -0.260693 3.38285
lowerneck -16.6011 -2.94706 -0.826557
upperneck 17.3307 -3.77354 -0.324099
head 8.11708 -1.87674 -0.415383
rclavicle -1.46604e-014 7.95139e-016
rhumerus -34.4387 -15.8522 -78.0298
rradius 26.7495
rwrist 5.49335
rhand -14.7592 22.348
rfingers 7.12502
rthumb 11.397 -7.32225
lclavicle -1.46604e-014 7.95139e-016
lhumerus -23.8266 -6.27677 78.3713
lradius 32.9785
lwrist 1.16958
lhand -24.9551 27.8202
lfingers 7.12502
lthumb 1.55495 57.7943
rfemur -30.3862 1.4047 19.9241
rtibia 32.5828
rfoot -7.87076 -16.6038
rtoes -1.03606
lfemur 0.133722 -4.4499 -26.0781
ltibia 28.0421
lfoot -20.0533 8.5298
ltoes -4.6097
134
root 0.89469 18.1423 0.293949 -2.10253 -1.15662 1.44141
lowerback 10.9232 -0.31308 -2.65568
upperback 1.6476 -0.639841 1.83207
thorax -4.3529 -0.264348 3.50683
lowerneck -16.7337 -2.96111 -0.973104
upperneck 17.3587 -3.78853 -0.155768
head 8.15659 -1.87562 -0.339882
rclavicle -2.42517e-014 5.56597e-015
rhumerus -34.5318 -16.0663 -77.9484
rradius 26.5847
rwrist 5.75581
rhand -14.7396 22.6786
rfingers 7.12502
rthumb 11.4159 -6.9906
lclavicle -2.42517e-014 5.56597e-015
lhumerus -23.5524 -6.36264 78.2295
lradius 33.4054
lwrist 1.26806
lhand -23.3497 31.9421
lfingers 7.12502
lthumb 3.10542 61.8992
rfemur -29.6924 1.987 19.6279
rtibia 29.2079
rfoot -6.57408 -17.1658
rtoes -2.56586
lfemur 1.01176 -4.43393 -26.2208
ltibia 27.1698
lfoot -19.6323 8.75431
ltoes -6.71342
135
root 0.88502 18.1354 0.452295 -1.98455 -1.27669 1.759
lowerback 10.9313 -0.31026 -2.96738
upperback 1.58617 -0.676135 1.76845
thorax -4.41584 -0.275687 3.62308
lowerneck -16.676 -2.94037 -1.13165
upperneck 17.3814 -3.76633 0.0665333
head 8.16196 -1.85291 -0.236813
rclavicle -8.94531e-016 2.38542e-015
rhumerus -34.6664 -16.3277 -77.8333
rradius 26.2457
rwrist 6.22375
rhand -14.7763 22.9591
rfingers 7.12502
rthumb 11.3805 -6.71211
lclavicle -8.94531e-016 2.38542e-015
lhumerus -23.3849 -6.3437 78.0212
lradius 33.5764
lwrist 1.23877
lhand -22.1232 33.7971
lfingers 7.12502
lthumb 4.28977 63.7336
rfemur -29.1427 2.50342 19.0885
rtibia 25.7807
rfoot -5.63415 -17.412
rtoes -4.07766
lfemur 1.80941 -4.27932 -26.6124
ltibia 26.3748
lfoot -19.297 8.96093
ltoes -7.10122
136
root 0.877291 18.1267 0.616198 -1.83285 -1.254 1.83082
lowerback 10.7734 -0.358038 -3.0443
upperback 1.56813 -0.743862 1.78718
thorax -4.34005 -0.309202 3.69335
lowerneck -16.5596 -2.84701 -1.01709
upperneck 17.2657 -3.6515 -0.0124065
head 8.0981 -1.79992 -0.265094
rclavicle 1.36167e-014 1.03368e-014
rhumerus -34.7381 -16.8725 -77.6054
rradius 25.938
rwrist 6.66107
rhand -14.5155 23.146
rfingers 7.12502
rthumb 11.632 -6.51116
lclavicle 1.36167e-014 1.03368e-014
lhumerus -23.084 -6.39404 77.8598
lradius 33.6586
lwrist 1.13511
lhand -22.529 31.2907
lfingers 7.12502
lthumb 3.89797 61.2348
rfemur -28.5198 2.95444 18.7849
rtibia 22.358
rfoot -5.36606 -17.5637
rtoes -4.46159
lfemur 2.57468 -4.26559 -26.7255
ltibia 25.7381
lfoot -19.5871 8.98528
ltoes -5.65368
137
root 0.866965 18.1154 0.786311 -1.74816 -1.10461 1.77998
lowerback 10.5893 -0.460288 -3.00606
upperback 1.64077 -0.869432 1.81071
thorax -4.15116 -0.376995 3.70903
lowerneck -16.6377 -2.76837 -0.88293
upperneck 17.2398 -3.58322 0.0204696
head 8.10089 -1.75509 -0.268934
rclavicle 1.68967e-015 8.74653e-015
rhumerus -34.7528 -17.4499 -77.4652
rradius 25.7104
rwrist 7.10939
rhand -14.3953 23.3307
rfingers 7.12502
rthumb 11.7479 -6.31989
lclavicle 1.68967e-015 8.74653e-015
lhumerus -22.7504 -6.41977 77.6424
lradius 33.8982
lwrist 1.24335
lhand -23.0538 26.1739
lfingers 7.12502
lthumb 3.39118 56.1267
rfemur -27.7068 3.5731 18.4825
rtibia 18.9357
rfoot -5.50252 -17.6868
rtoes -3.3995
lfemur 3.28579 -4.0474 -26.6189
ltibia 25.3006
lfoot -18.7685 9.00473
ltoes -8.58982
